<svg width="9" height="9" fill="none" xmlns="http://www.w3.org/2000/svg"><path d="M.988 8.817a.363.363 0 01-.24-.096.326.326 0 01-.097-.24.47.47 0 01.016-.112.981.981 0 01.096-.176L3.547 4.56.94 1.12A1.565 1.565 0 01.844.96.526.526 0 01.828.833a.326.326 0 01.336-.336h.816c.117 0 .202.032.256.096.063.053.117.107.16.16L4.524 3.52 6.652.769l.143-.176a.368.368 0 01.272-.096h.784a.326.326 0 01.337.336.277.277 0 01-.033.128.552.552 0 01-.08.16l-2.64 3.472 2.785 3.6a.574.574 0 01.08.16.284.284 0 01.031.128.326.326 0 01-.335.336h-.849a.387.387 0 01-.256-.08 1.132 1.132 0 01-.16-.16L4.476 5.649 2.22 8.577l-.16.16c-.054.053-.14.08-.256.08H.987z" fill="#D9D9D9"/></svg>