<svg width="11" height="12" fill="none" xmlns="http://www.w3.org/2000/svg"><path d="M4.807 11.34a.487.487 0 01-.36-.14.487.487 0 01-.14-.36V7.06h-3.7a.487.487 0 01-.36-.14.463.463 0 01-.14-.34V5.32c0-.147.046-.267.14-.36a.487.487 0 01.36-.14h3.7V1.16c0-.147.046-.267.14-.36a.487.487 0 01.36-.14h1.38a.49.49 0 01.36.14c.093.093.14.213.14.36v3.66h3.7c.133 0 .246.047.34.14.093.093.14.213.14.36v1.26a.463.463 0 01-.14.34.463.463 0 01-.34.14h-3.7v3.78a.487.487 0 01-.14.36.487.487 0 01-.36.14h-1.38z" fill="#fff"/></svg>