<?xml version="1.0" encoding="utf-8"?><svg viewBox="0 0 16 17" xmlns="http://www.w3.org/2000/svg" xmlns:xlink="http://www.w3.org/1999/xlink"><style>:root>svg{display:none}:root>svg:target{display:block}</style><svg viewBox="0 0 16 17" id="arrow-next" xmlns="http://www.w3.org/2000/svg"><g clip-path="url(#aa)"><path d="M4.078 16.077 11.35 8.84a.722.722 0 0 0 0-1.024L4.078.58a.73.73 0 0 0-1.029 0 .721.721 0 0 0 0 1.023l6.759 6.725-6.759 6.725a.72.72 0 0 0 0 1.024.73.73 0 0 0 1.029 0Z"/></g><defs><clipPath id="aa"><path transform="rotate(90 7.816 8.184)" d="M0 0h15.921v16H0z"/></clipPath></defs></svg><svg viewBox="0 0 16 17" id="arrow-prev" xmlns="http://www.w3.org/2000/svg"><g clip-path="url(#ba)"><path d="M11.922.58 4.65 7.817a.722.722 0 0 0 0 1.023l7.273 7.237a.73.73 0 0 0 1.029 0 .721.721 0 0 0 0-1.024L6.192 8.328l6.759-6.725a.72.72 0 0 0 0-1.023.73.73 0 0 0-1.029 0Z"/></g><defs><clipPath id="ba"><path transform="rotate(-90 8.144 8.144)" d="M0 0h15.921v16H0z"/></clipPath></defs></svg><svg viewBox="0 0 12 13" id="icon-arrow" xmlns="http://www.w3.org/2000/svg"><g clip-path="url(#ca)"><path d="m.16 3.673 5.454 5.482a.544.544 0 0 0 .772 0l5.454-5.482a.55.55 0 0 0 0-.775.543.543 0 0 0-.771 0L6 7.992.931 2.898a.542.542 0 0 0-.771 0 .55.55 0 0 0 0 .775Z"/></g><defs><clipPath id="ca"><path transform="rotate(180 6 6.33)" d="M0 0h12v12.06H0z"/></clipPath></defs></svg><svg viewBox="0 0 9 9" id="icon-close" xmlns="http://www.w3.org/2000/svg"><path d="M.988 8.817a.363.363 0 0 1-.24-.096.326.326 0 0 1-.097-.24.47.47 0 0 1 .016-.112.981.981 0 0 1 .096-.176L3.547 4.56.94 1.12A1.565 1.565 0 0 1 .844.96.526.526 0 0 1 .828.833a.326.326 0 0 1 .336-.336h.816c.117 0 .202.032.256.096.063.053.117.107.16.16L4.524 3.52 6.652.769l.143-.176c.064-.064.155-.096.272-.096h.784a.326.326 0 0 1 .337.336c0 .043-.011.085-.033.128a.552.552 0 0 1-.08.16l-2.64 3.472 2.785 3.6c.042.064.069.117.08.16a.284.284 0 0 1 .031.128.326.326 0 0 1-.335.336h-.849a.387.387 0 0 1-.256-.08 1.132 1.132 0 0 1-.16-.16L4.476 5.649 2.22 8.577l-.16.16c-.054.053-.14.08-.256.08H.987Z"/></svg><svg viewBox="0 0 11 12" id="plus" xmlns="http://www.w3.org/2000/svg"><path d="M4.807 11.34a.487.487 0 0 1-.36-.14.487.487 0 0 1-.14-.36V7.06h-3.7a.487.487 0 0 1-.36-.14.463.463 0 0 1-.14-.34V5.32c0-.147.046-.267.14-.36a.487.487 0 0 1 .36-.14h3.7V1.16c0-.147.046-.267.14-.36a.487.487 0 0 1 .36-.14h1.38c.146 0 .266.047.36.14.093.093.14.213.14.36v3.66h3.7c.133 0 .246.047.34.14.093.093.14.213.14.36v1.26a.463.463 0 0 1-.14.34.463.463 0 0 1-.34.14h-3.7v3.78a.487.487 0 0 1-.14.36.487.487 0 0 1-.36.14h-1.38Z"/></svg></svg>